<svg width="115" height="108" viewBox="0 0 115 108" fill="none" xmlns="http://www.w3.org/2000/svg">
<path d="M114.188 51.2431C114.178 48.6485 113.473 46.0983 112.136 43.8302C110.799 41.5621 108.875 39.6499 106.542 38.2717C107.965 35.9878 108.727 33.3916 108.75 30.7431C108.75 22.3124 101.382 15.3681 92.4375 15.3681L72.558 15.3681L57.942 4.63631C48.9593 -1.90831 36.067 -1.46756 27.5301 5.59981L12.9141 17.7717C8.85406 21.1321 5.60183 25.2706 3.37478 29.9106C1.14774 34.5506 -0.00281487 39.5852 3.24705e-05 44.6779L3.36536e-05 71.7431C3.45172e-05 91.4999 17.101 107.618 38.0625 107.618L87 107.618C95.9447 107.618 103.313 100.674 103.313 92.2431C103.313 89.5012 102.464 86.9592 101.105 84.7144C103.437 83.3363 105.361 81.424 106.698 79.1559C108.035 76.8878 108.741 74.3376 108.75 71.7431C108.75 69.0012 107.902 66.4592 106.542 64.2144C108.875 62.8363 110.799 60.924 112.136 58.6559C113.473 56.3878 114.178 53.8376 114.188 51.2431V51.2431ZM103.313 51.2431C103.313 54.1438 100.953 56.3681 97.875 56.3681L81.5625 56.3681L81.5625 66.6181L92.4375 66.6181C95.5152 66.6181 97.875 68.8423 97.875 71.7431C97.875 74.6438 95.5152 76.8681 92.4375 76.8681L81.5625 76.8681L81.5625 87.1181L87 87.1181C90.0777 87.1181 92.4375 89.3423 92.4375 92.2431C92.4375 95.1438 90.0777 97.3681 87 97.3681L38.0625 97.3681C22.9843 97.3681 10.875 85.9547 10.875 71.7431L10.875 44.6779C10.8612 41.0427 11.6732 37.4467 13.2564 34.1318C14.8395 30.8169 17.1571 27.8598 20.0535 25.4592L34.8327 13.2873C37.0595 11.4155 39.9138 10.3416 42.8961 10.2535C45.8783 10.1654 48.7984 11.0688 51.1452 12.8056L54.7176 15.3681L48.9375 15.3681L48.9375 25.6181L92.4375 25.6181C95.5152 25.6181 97.875 27.8423 97.875 30.7431C97.875 33.6438 95.5152 35.8681 92.4375 35.8681L81.5625 35.8681L81.5625 46.1181L97.875 46.1181C100.953 46.1181 103.313 48.3423 103.313 51.2431Z" fill="#FF6B6B"/>
</svg>
