<svg width="115" height="108" viewBox="0 0 115 108" fill="none" xmlns="http://www.w3.org/2000/svg">
<path d="M-2.23991e-06 51.2431C0.00912696 48.6485 0.714976 46.0983 2.05177 43.8302C3.38856 41.5621 5.31278 39.6499 7.64512 38.2717C6.22206 35.9878 5.46076 33.3916 5.4375 30.7431C5.4375 22.3124 12.8053 15.3681 21.75 15.3681L41.6295 15.3681L56.2455 4.63631C65.2282 -1.90831 78.1206 -1.46756 86.6574 5.59981L101.273 17.7717C105.333 21.1321 108.586 25.2706 110.813 29.9106C113.04 34.5506 114.19 39.5852 114.187 44.6779L114.187 71.7431C114.187 91.4999 97.0866 107.618 76.125 107.618L27.1875 107.618C18.2428 107.618 10.875 100.674 10.875 92.2431C10.875 89.5012 11.7232 86.9592 13.0826 84.7144C10.7503 83.3363 8.82606 81.424 7.48927 79.1559C6.15247 76.8878 5.44663 74.3376 5.4375 71.7431C5.4375 69.0012 6.28575 66.4592 7.64512 64.2144C5.31278 62.8363 3.38856 60.924 2.05177 58.6559C0.714976 56.3878 0.00912673 53.8376 -2.23991e-06 51.2431V51.2431ZM10.875 51.2431C10.875 54.1438 13.2349 56.3681 16.3125 56.3681L32.625 56.3681L32.625 66.6181L21.75 66.6181C18.6724 66.6181 16.3125 68.8423 16.3125 71.7431C16.3125 74.6438 18.6724 76.8681 21.75 76.8681L32.625 76.8681L32.625 87.1181L27.1875 87.1181C24.1099 87.1181 21.75 89.3423 21.75 92.2431C21.75 95.1438 24.1099 97.3681 27.1875 97.3681L76.125 97.3681C91.2032 97.3681 103.312 85.9547 103.312 71.7431L103.312 44.6779C103.326 41.0427 102.514 37.4467 100.931 34.1318C99.348 30.8169 97.0304 27.8598 94.134 25.4592L79.3549 13.2873C77.1281 11.4155 74.2737 10.3416 71.2915 10.2535C68.3092 10.1654 65.3891 11.0688 63.0424 12.8056L59.4699 15.3681L65.25 15.3681L65.25 25.6181L21.75 25.6181C18.6724 25.6181 16.3125 27.8423 16.3125 30.7431C16.3125 33.6438 18.6724 35.8681 21.75 35.8681L32.625 35.8681L32.625 46.1181L16.3125 46.1181C13.2349 46.1181 10.875 48.3423 10.875 51.2431Z" fill="#FF6B6B"/>
</svg>
