<svg width="145" height="122" viewBox="0 0 145 122" fill="none" xmlns="http://www.w3.org/2000/svg">
<path d="M113.1 101.459L116.166 101.459C128.517 101.459 137.885 90.4242 134.729 78.8454C148.747 71.8661 148.166 53.2227 134.517 46.7164C137.508 35.4749 128.59 24.2757 116.114 24.2757L80.3932 24.2757C82.4965 18.8421 81.8284 12.482 77.8809 7.36918C71.7082 -0.624813 59.9448 -2.37829 51.4996 3.4069L3.80398 36.077C2.62762 36.8829 1.66863 37.9475 1.00693 39.1821C0.345232 40.4166 6.10953e-07 41.7854 -7.79091e-07 43.1743L-3.55036e-06 103.874C-3.73566e-06 107.933 2.91387 111.454 7.02711 112.365L44.1148 120.585C48.3564 121.525 52.695 121.999 57.0476 122L94.3069 122C105.811 122 114.695 112.326 113.1 101.459ZM57.0479 108.928C53.7256 108.928 50.4014 108.564 47.168 107.848L13.594 100.407L13.594 45.4196L59.3871 14.0492C65.1277 10.1172 71.5014 18.1403 65.7889 22.0538L55.0048 29.4414C51.4291 31.8909 53.2243 37.3471 57.6338 37.3471L116.114 37.3471C123.376 37.3471 123.14 47.3062 115.918 47.3062L72.5003 47.3062C69.9976 47.3062 67.969 49.2568 67.969 51.6634L67.969 53.5304C67.969 55.9369 69.9976 57.8875 72.5003 57.8875L126.026 57.8875C133.294 57.8875 133.052 67.8466 125.83 67.8466L72.5003 67.8466C69.9976 67.8466 67.969 69.7972 67.969 72.2037L67.969 74.0708C67.969 76.4773 69.9976 78.4279 72.5003 78.4279L116.361 78.4279C123.632 78.4279 123.388 88.3867 116.166 88.3867L72.5003 88.3867C69.9976 88.3867 67.969 90.3373 67.969 92.7439L67.969 94.6112C67.969 97.0177 69.9976 98.9683 72.5003 98.9683L94.1112 98.9683C101.543 98.9683 101.373 108.927 94.3069 108.927L57.0479 108.927L57.0479 108.928Z" fill="#FF6B6B"/>
</svg>
