<svg width="145" height="122" viewBox="0 0 145 122" fill="none" xmlns="http://www.w3.org/2000/svg">
<path d="M31.9004 101.459L28.8347 101.459C16.4837 101.459 7.11559 90.4242 10.2719 78.8454C-3.74667 71.8661 -3.1661 53.2227 10.4834 46.7164C7.49253 35.4749 16.4103 24.2757 28.8868 24.2757L64.6072 24.2757C62.5039 18.8421 63.172 12.482 67.1195 7.36918C73.2922 -0.624813 85.0556 -2.37829 93.5008 3.4069L141.196 36.077C142.373 36.8829 143.332 37.9475 143.993 39.1821C144.655 40.4166 145 41.7854 145 43.1743L145 103.874C145 107.933 142.087 111.454 137.973 112.365L100.886 120.585C96.644 121.525 92.3054 121.999 87.9528 122L50.6935 122C39.1898 122 30.3051 112.326 31.9004 101.459ZM87.9525 108.928C91.2748 108.928 94.599 108.564 97.8324 107.848L131.406 100.407L131.406 45.4196L85.6133 14.0492C79.8727 10.1172 73.499 18.1403 79.2115 22.0538L89.9956 29.4414C93.5713 31.8909 91.776 37.3471 87.3666 37.3471L28.8868 37.3471C21.6241 37.3471 21.8606 47.3062 29.0825 47.3062L72.5001 47.3062C75.0028 47.3062 77.0314 49.2568 77.0314 51.6634L77.0314 53.5304C77.0314 55.9369 75.0028 57.8875 72.5001 57.8875L18.9747 57.8875C11.7069 57.8875 11.9485 67.8466 19.1704 67.8466L72.5001 67.8466C75.0028 67.8466 77.0314 69.7972 77.0314 72.2037L77.0314 74.0708C77.0314 76.4773 75.0028 78.4279 72.5001 78.4279L28.639 78.4279C21.3686 78.4279 21.6128 88.3867 28.8347 88.3867L72.5001 88.3867C75.0028 88.3867 77.0314 90.3373 77.0314 92.7439L77.0314 94.6112C77.0314 97.0177 75.0028 98.9683 72.5001 98.9683L50.8892 98.9683C43.4574 98.9683 43.6278 108.927 50.6935 108.927L87.9525 108.927L87.9525 108.928Z" fill="#FF6B6B"/>
</svg>
