<svg width="135" height="93" viewBox="0 0 135 93" fill="none" xmlns="http://www.w3.org/2000/svg">
<path d="M45.5349 0.796129C42.3971 0.765577 39.2731 1.19804 36.2737 2.07819H36.1254L24.1723 5.64151C17.3363 7.65379 11.3556 11.7028 7.10672 17.1949C2.85789 22.687 0.564423 29.3335 0.5625 36.1601V60.2501C0.5625 77.8385 15.5995 92.1876 34.0312 92.1876H81.3943C87.2227 92.3108 92.8645 89.0486 95.1404 83.6329C96.5796 80.1928 96.374 76.5747 94.9922 73.3673C98.0306 71.8739 100.413 69.3979 101.715 66.3821C102.423 64.6724 102.762 62.8437 102.711 61.0059C102.66 59.1681 102.22 57.3591 101.418 55.6876H120.094C127.959 55.6876 134.438 49.5054 134.438 42.0001C134.438 34.4948 127.959 28.3126 120.094 28.3126H112.774L114.715 27.7423C122.241 25.5659 126.558 17.8143 124.277 10.6329C121.997 3.4515 113.873 -0.668433 106.348 1.50788L66.0035 13.343C65.6351 12.4064 65.1874 11.5 64.6647 10.6329C62.2741 6.81863 57.4355 2.50707 49.7185 1.22044C48.2842 0.992316 46.8641 0.809817 45.5349 0.796129V0.796129ZM111.129 10.0626C112.994 10.2588 114.586 11.4906 115.164 13.343C115.948 15.8022 114.452 18.2979 111.875 19.0461L79.1567 28.454L80.7967 33.5868V37.4376H120.094C122.8 37.4376 124.875 39.4177 124.875 42.0001C124.875 44.5824 122.8 46.5626 120.094 46.5626H88.5662L76.0154 41.8586C74.2626 41.1731 72.3824 40.8332 70.4883 40.8594L67.9494 22.1806L109.188 10.204C109.817 10.0259 110.479 9.97771 111.129 10.0626ZM45.3867 10.204C46.2999 10.204 47.2514 10.204 48.0786 10.3454C53.2136 11.2032 55.1931 13.343 56.4457 15.3368C57.6937 17.3352 57.7845 18.7587 57.7845 18.7587V19.0461L61.8247 48.4149C61.864 48.5604 61.9119 48.7035 61.9681 48.8438C62.1138 49.4055 62.1401 49.9894 62.0455 50.561C61.9509 51.1326 61.7374 51.6803 61.4174 52.1719C61.0974 52.6635 60.6776 53.0889 60.1826 53.4232C59.6875 53.7574 59.1274 53.9937 58.5352 54.1181C56.986 54.474 56.2019 54.2778 55.3987 53.8352C54.5954 53.3881 53.6057 52.4436 52.8598 50.4133L46.8832 28.3126C46.698 27.6476 46.3576 27.0312 45.8875 26.5095C45.4173 25.9878 44.8296 25.5743 44.1682 25.3C43.5069 25.0258 42.7892 24.8978 42.0687 24.9257C41.3482 24.9535 40.6437 25.1365 40.0078 25.461L32.0901 29.5946C31.5391 29.8837 31.0535 30.2739 30.6612 30.7428C30.2689 31.2117 29.9778 31.7501 29.8044 32.3268C29.6311 32.9036 29.5791 33.5073 29.6513 34.1034C29.7236 34.6994 29.9187 35.2759 30.2254 35.7996C30.5283 36.3242 30.9368 36.7865 31.4275 37.1601C31.9181 37.5336 32.4812 37.811 33.0845 37.9763C33.6878 38.1416 34.3194 38.1916 34.9429 38.1235C35.5665 38.0553 36.1699 37.8703 36.7183 37.579L39.1089 36.2969L43.7467 53.1234C43.7863 53.2673 43.8342 53.409 43.8902 53.5478C45.1811 57.0791 47.3853 59.9124 50.4692 61.6781C52.9889 63.1199 55.9198 63.6719 58.8364 63.3891C57.2728 64.7807 56.0486 66.4831 55.2504 68.3759C54.2012 70.8469 53.9391 73.5583 54.497 76.1707C55.0549 78.7832 56.408 81.1805 58.3869 83.0626H34.0312C20.7728 83.0626 10.125 72.9019 10.125 60.2501V36.1555C10.125 26.118 16.9622 17.2987 27.0076 14.3422L38.9607 10.9203C39.9313 10.6329 42.6614 10.204 45.3867 10.204V10.204ZM71.3872 50.1259C71.741 50.1806 72.0757 50.1259 72.4295 50.2719L90.2109 57.1156C92.7115 58.0738 93.9068 60.5695 92.9028 62.9556C91.8939 65.3464 89.1256 66.487 86.625 65.5243L68.8435 58.8266C68.5853 58.7353 68.4706 58.5209 68.2459 58.3977C70.2029 56.0372 71.3051 53.1348 71.3872 50.1259V50.1259ZM68.3989 68.9462C69.03 68.9462 69.7042 69.001 70.3401 69.2336L76.7613 71.6563L83.0391 74.079L83.6367 74.225C86.1373 75.1831 87.3326 77.8248 86.3286 80.211C85.9994 81.0244 85.4278 81.7279 84.6843 82.2347C83.9408 82.7415 83.058 83.0293 82.145 83.0626H81.992C81.3314 83.0894 80.6718 82.9918 80.0508 82.7751L66.7541 77.6423C66.1621 77.4222 65.6219 77.0918 65.165 76.6704C64.7082 76.249 64.3438 75.745 64.0933 75.1878C63.8427 74.6306 63.7109 74.0313 63.7056 73.425C63.7003 72.8187 63.8215 72.2175 64.0623 71.6563C64.2927 71.1102 64.6363 70.614 65.0726 70.1977C65.5088 69.7814 66.0288 69.4535 66.6011 69.2336C67.173 69.0197 67.7852 68.9219 68.3989 68.9462V68.9462Z" fill="#FF6B6B"/>
</svg>
