<svg width="135" height="93" viewBox="0 0 135 93" fill="none" xmlns="http://www.w3.org/2000/svg">
<path d="M89.4651 0.796129C92.6029 0.765577 95.7269 1.19804 98.7263 2.07819H98.8746L110.828 5.64151C117.664 7.65379 123.644 11.7028 127.893 17.1949C132.142 22.687 134.436 29.3335 134.438 36.1601V60.2501C134.438 77.8385 119.4 92.1876 100.969 92.1876H53.6057C47.7773 92.3108 42.1355 89.0486 39.8596 83.6329C38.4204 80.1928 38.626 76.5747 40.0078 73.3673C36.9694 71.8739 34.5866 69.3979 33.2854 66.3821C32.5771 64.6724 32.2382 62.8437 32.2891 61.0059C32.3401 59.1681 32.7798 57.3591 33.5818 55.6876H14.9062C7.04109 55.6876 0.5625 49.5054 0.5625 42.0001C0.5625 34.4948 7.04109 28.3126 14.9062 28.3126H22.2263L20.2852 27.7423C12.7595 25.5659 8.442 17.8143 10.7227 10.6329C13.0033 3.4515 21.1267 -0.668433 28.6523 1.50788L68.9965 13.343C69.3649 12.4064 69.8126 11.5 70.3353 10.6329C72.7259 6.81863 77.5645 2.50707 85.2815 1.22044C86.7158 0.992316 88.1359 0.809817 89.4651 0.796129V0.796129ZM23.8711 10.0626C22.0064 10.2588 20.4143 11.4906 19.8357 13.343C19.0516 15.8022 20.5481 18.2979 23.1252 19.0461L55.8433 28.454L54.2033 33.5868V37.4376H14.9062C12.2001 37.4376 10.125 39.4177 10.125 42.0001C10.125 44.5824 12.2001 46.5626 14.9062 46.5626H46.4338L58.9846 41.8586C60.7374 41.1731 62.6176 40.8332 64.5117 40.8594L67.0506 22.1806L25.8123 10.204C25.1831 10.0259 24.5213 9.97771 23.8711 10.0626ZM89.6133 10.204C88.7001 10.204 87.7486 10.204 86.9214 10.3454C81.7864 11.2032 79.8069 13.343 78.5543 15.3368C77.3063 17.3352 77.2155 18.7587 77.2155 18.7587V19.0461L73.1753 48.4149C73.136 48.5604 73.0881 48.7035 73.0319 48.8438C72.8862 49.4055 72.8599 49.9894 72.9545 50.561C73.0491 51.1326 73.2626 51.6803 73.5826 52.1719C73.9026 52.6635 74.3224 53.0889 74.8174 53.4232C75.3125 53.7574 75.8726 53.9937 76.4648 54.1181C78.014 54.474 78.7981 54.2778 79.6013 53.8352C80.4046 53.3881 81.3943 52.4436 82.1402 50.4133L88.1168 28.3126C88.302 27.6476 88.6424 27.0312 89.1125 26.5095C89.5827 25.9878 90.1704 25.5743 90.8318 25.3C91.4931 25.0258 92.2108 24.8978 92.9313 24.9257C93.6518 24.9535 94.3563 25.1365 94.9922 25.461L102.91 29.5946C103.461 29.8837 103.947 30.2739 104.339 30.7428C104.731 31.2117 105.022 31.7501 105.196 32.3268C105.369 32.9036 105.421 33.5073 105.349 34.1034C105.276 34.6994 105.081 35.2759 104.775 35.7996C104.472 36.3242 104.063 36.7865 103.573 37.1601C103.082 37.5336 102.519 37.811 101.915 37.9763C101.312 38.1416 100.681 38.1916 100.057 38.1235C99.4335 38.0553 98.8301 37.8703 98.2817 37.579L95.8911 36.2969L91.2533 53.1234C91.2137 53.2673 91.1658 53.409 91.1098 53.5478C89.8189 57.0791 87.6147 59.9124 84.5308 61.6781C82.0111 63.1199 79.0802 63.6719 76.1636 63.3891C77.7272 64.7807 78.9514 66.4831 79.7496 68.3759C80.7988 70.8469 81.0609 73.5583 80.503 76.1707C79.9451 78.7832 78.592 81.1805 76.6131 83.0626H100.969C114.227 83.0626 124.875 72.9019 124.875 60.2501V36.1555C124.875 26.118 118.038 17.2987 107.992 14.3422L96.0393 10.9203C95.0687 10.6329 92.3386 10.204 89.6133 10.204V10.204ZM63.6128 50.1259C63.259 50.1806 62.9243 50.1259 62.5705 50.2719L44.7891 57.1156C42.2885 58.0738 41.0932 60.5695 42.0972 62.9556C43.1061 65.3464 45.8744 66.487 48.375 65.5243L66.1565 58.8266C66.4147 58.7353 66.5294 58.5209 66.7541 58.3977C64.7971 56.0372 63.6949 53.1348 63.6128 50.1259V50.1259ZM66.6011 68.9462C65.97 68.9462 65.2958 69.001 64.6599 69.2336L58.2387 71.6563L51.9609 74.079L51.3633 74.225C48.8627 75.1831 47.6674 77.8248 48.6714 80.211C49.0006 81.0244 49.5722 81.7279 50.3157 82.2347C51.0592 82.7415 51.942 83.0293 52.855 83.0626H53.008C53.6686 83.0894 54.3282 82.9918 54.9492 82.7751L68.2459 77.6423C68.8379 77.4222 69.3781 77.0918 69.835 76.6704C70.2918 76.249 70.6562 75.745 70.9067 75.1878C71.1573 74.6306 71.2891 74.0313 71.2944 73.425C71.2997 72.8187 71.1785 72.2175 70.9377 71.6563C70.7073 71.1102 70.3637 70.614 69.9274 70.1977C69.4912 69.7814 68.9712 69.4535 68.3989 69.2336C67.827 69.0197 67.2148 68.9219 66.6011 68.9462V68.9462Z" fill="#FF6B6B"/>
</svg>
