<svg width="63" height="75" viewBox="0 0 63 75" fill="none" xmlns="http://www.w3.org/2000/svg">
<path d="M51.5892 16.2602L51.5762 14.7055C51.5239 8.44225 45.8885 3.73841 40.0302 5.38806C36.4316 -1.69125 26.9798 -1.31784 23.7383 5.6315C18.025 4.16243 12.3836 8.73215 12.4365 15.0591L12.5879 33.1731C9.82357 32.1295 6.60117 32.4952 4.02516 34.5187C-0.00248174 37.6828 -0.841827 43.6555 2.12767 47.9136L18.897 71.9619C19.3107 72.555 19.8546 73.0368 20.4834 73.3671C21.1123 73.6974 21.8079 73.8667 22.5122 73.8608L53.2933 73.6036C55.3515 73.5864 57.1248 72.0938 57.5696 70.0041L61.5807 51.1619C62.0391 49.007 62.2614 46.8048 62.2433 44.5976L62.0854 25.7032C62.0367 19.8696 57.0934 15.4051 51.5892 16.2602ZM55.6143 44.6529C55.6284 46.3376 55.4583 48.0249 55.1086 49.6675L51.4774 66.7247L23.5932 66.9577L7.49102 43.8687C5.47273 40.9743 9.51429 37.7081 11.5231 40.5884L15.315 46.0257C16.5724 47.8286 19.3316 46.8951 19.313 44.6591L19.0651 15.0037C19.0343 11.3207 24.0856 11.3984 24.1162 15.0607L24.3002 37.078C24.3109 38.3471 25.3086 39.3676 26.529 39.3574L27.4758 39.3494C28.6961 39.3392 29.6767 38.3023 29.6661 37.0332L29.4393 9.89013C29.4085 6.20457 34.4598 6.28486 34.4904 9.94716L34.7164 36.991C34.727 38.2601 35.7248 39.2805 36.9451 39.2703L37.8919 39.2624C39.1123 39.2522 40.0928 38.2152 40.0822 36.9461L39.8964 14.7039C39.8655 11.017 44.9167 11.0986 44.9473 14.7609L45.1324 36.9039C45.143 38.173 46.1408 39.1935 47.3611 39.1833L48.308 39.1753C49.5284 39.1651 50.509 38.1282 50.4984 36.8591L50.4068 25.9C50.3753 22.1313 55.4262 22.1756 55.4561 25.7586L55.614 44.6529L55.6143 44.6529Z" fill="#4ECDC4"/>
</svg>
