<svg width="50" height="72" viewBox="0 0 50 72" fill="none" xmlns="http://www.w3.org/2000/svg">
<path d="M0.000830215 47.8131C-0.0158837 49.5007 0.220702 51.1809 0.702206 52.794L0.702206 52.8737L2.65158 59.3023C3.75244 62.9788 5.9675 66.1953 8.97207 68.4804C11.9766 70.7655 15.6127 71.999 19.3473 72L32.5262 72C42.1483 72 49.9982 63.9129 49.9982 54L49.9982 28.5274C50.0656 25.3929 48.2809 22.3586 45.3182 21.1346C43.4362 20.3606 41.4569 20.4711 39.7022 21.2143C38.8852 19.5802 37.5307 18.2986 35.8808 17.5989C34.9455 17.2179 33.9451 17.0357 32.9397 17.0631C31.9343 17.0905 30.9446 17.3269 30.0302 17.7583L30.0302 7.71429C30.0302 3.48429 26.6481 -2.11151e-07 22.5422 -3.16759e-08C18.4363 1.47799e-07 15.0542 3.48429 15.0542 7.71429L15.0542 11.6511L14.7422 10.6071C13.5516 6.55971 9.3109 4.23771 5.3822 5.46429C1.4535 6.69086 -0.800386 11.0597 0.390205 15.1071L6.86482 36.8049C6.35244 37.0029 5.85659 37.2437 5.3822 37.5249C3.29555 38.8106 0.936829 41.4129 0.232958 45.5631C0.108158 46.3346 0.00831818 47.0983 0.000830215 47.8131V47.8131ZM5.0702 12.5357C5.17753 11.5329 5.85145 10.6766 6.86482 10.3654C8.21017 9.94372 9.57548 10.7486 9.98482 12.1346L15.1316 29.7309L17.9396 28.8489L20.0462 28.8489L20.0462 7.71429C20.0462 6.25886 21.1295 5.14286 22.5422 5.14286C23.9549 5.14286 25.0382 6.25886 25.0382 7.71429L25.0382 24.6703L22.4648 31.4203C22.0898 32.363 21.9038 33.3742 21.9182 34.3929L11.6996 35.7583L5.14758 13.5797C5.05015 13.2413 5.02378 12.8854 5.0702 12.5357ZM5.14758 47.8929C5.14758 47.4017 5.14758 46.89 5.22495 46.4451C5.6942 43.6834 6.86482 42.6189 7.95558 41.9451C9.04882 41.274 9.82757 41.2251 9.82757 41.2251L9.98482 41.2251L26.0516 39.0523C26.1311 39.0311 26.2094 39.0054 26.2862 38.9751C26.5935 38.8968 26.9129 38.8826 27.2256 38.9335C27.5383 38.9844 27.8379 39.0992 28.1069 39.2713C28.3758 39.4434 28.6085 39.6692 28.7914 39.9354C28.9743 40.2017 29.1035 40.5029 29.1716 40.8214C29.3662 41.6546 29.2589 42.0763 29.0168 42.5083C28.7722 42.9403 28.2555 43.4726 27.1448 43.8737L15.0542 47.088C14.6904 47.1876 14.3532 47.3707 14.0678 47.6236C13.7824 47.8764 13.5562 48.1925 13.4061 48.5482C13.2561 48.9038 13.1861 49.2899 13.2013 49.6773C13.2166 50.0648 13.3167 50.4437 13.4942 50.7857L15.7556 55.044C15.9137 55.3403 16.1272 55.6015 16.3837 55.8125C16.6402 56.0234 16.9347 56.18 17.2503 56.2732C17.5658 56.3665 17.8961 56.3944 18.2221 56.3556C18.5482 56.3167 18.8636 56.2118 19.1501 56.0469C19.4371 55.8839 19.69 55.6642 19.8944 55.4004C20.0987 55.1365 20.2505 54.8336 20.3409 54.5092C20.4314 54.1847 20.4587 53.8451 20.4214 53.5097C20.3841 53.1743 20.2829 52.8498 20.1236 52.5549L19.4222 51.2691L28.6274 48.7749C28.7061 48.7536 28.7836 48.7278 28.8596 48.6977C30.7915 48.0034 32.3415 46.818 33.3074 45.1594C34.0962 43.8043 34.3982 42.228 34.2434 40.6594C35.0047 41.5004 35.9361 42.1587 36.9716 42.588C38.3233 43.1523 39.8067 43.2933 41.2359 42.9932C42.665 42.6932 43.9765 41.9654 45.0062 40.9011L45.0062 54C45.0062 61.1306 39.4476 66.8571 32.5262 66.8571L19.3448 66.8571C13.8536 66.8571 9.02885 63.18 7.41145 57.7774L5.53945 51.3489C5.3822 50.8269 5.14758 49.3586 5.14758 47.8929V47.8929ZM26.9876 33.9094C27.0175 33.7191 26.9876 33.5391 27.0674 33.3489L30.8114 23.7857C31.3356 22.4409 32.7009 21.798 34.0063 22.338C35.3142 22.8806 35.9382 24.3694 35.4116 25.7143L31.7474 35.2774C31.6975 35.4163 31.5802 35.478 31.5128 35.5989C30.2214 34.5463 28.6336 33.9536 26.9876 33.9094V33.9094ZM37.2836 35.5166C37.2836 35.1771 37.3135 34.8146 37.4408 34.4726L38.7662 31.0191L40.0915 27.6429L40.1714 27.3214C40.6956 25.9766 42.1408 25.3337 43.4462 25.8737C43.8911 26.0507 44.276 26.3582 44.5533 26.758C44.8305 27.1579 44.988 27.6327 45.0062 28.1237L45.0062 28.206C45.0209 28.5613 44.9674 28.916 44.8489 29.25L42.0409 36.4011C41.9205 36.7196 41.7398 37.0101 41.5092 37.2558C41.2787 37.5015 41.0029 37.6974 40.6981 37.8322C40.3933 37.967 40.0655 38.0378 39.7338 38.0407C39.4021 38.0436 39.0731 37.9783 38.7662 37.8489C38.4674 37.725 38.196 37.5401 37.9682 37.3055C37.7405 37.0709 37.5611 36.7913 37.4408 36.4834C37.3238 36.1759 37.2702 35.8466 37.2836 35.5166V35.5166Z" fill="#4ECDC4"/>
</svg>
