<svg width="57" height="60" viewBox="0 0 57 60" fill="none" xmlns="http://www.w3.org/2000/svg">
<path d="M26.8437 0.875C25.499 0.879722 24.1773 1.24482 23.0017 1.93626C21.8262 2.6277 20.8351 3.62299 20.1208 4.82938C18.9371 4.09331 17.5914 3.69953 16.2187 3.6875C11.8492 3.6875 8.24998 7.49844 8.24998 12.125L8.24998 22.4075L2.68779 29.9675C-0.704237 34.6137 -0.4758 41.2822 3.18717 45.6978L9.49576 53.2578C11.2374 55.3578 13.3824 57.04 15.7873 58.1919C18.1921 59.3439 20.8016 59.939 23.4411 59.9375H37.4687C47.7086 59.9375 56.0625 51.0922 56.0625 40.25L56.0625 14.9375C56.0625 10.3109 52.4633 6.5 48.0937 6.5C46.6726 6.5 45.3551 6.93875 44.1917 7.64188C43.4774 6.43549 42.4863 5.4402 41.3108 4.74876C40.1352 4.05732 38.8135 3.69222 37.4687 3.6875C36.0476 3.6875 34.7301 4.12625 33.5667 4.82938C32.8524 3.62299 31.8613 2.6277 30.6858 1.93626C29.5102 1.24482 28.1885 0.879722 26.8437 0.875V0.875ZM26.8437 6.5C28.3472 6.5 29.5 7.72063 29.5 9.3125L29.5 17.75L34.8125 17.75L34.8125 12.125C34.8125 10.5331 35.9653 9.3125 37.4687 9.3125C38.9722 9.3125 40.125 10.5331 40.125 12.125L40.125 17.75H45.4375L45.4375 14.9375C45.4375 13.3456 46.5903 12.125 48.0937 12.125C49.5972 12.125 50.75 13.3456 50.75 14.9375L50.75 40.25C50.75 48.0491 44.8345 54.3125 37.4687 54.3125H23.4411C21.5569 54.3196 19.6932 53.8996 17.9751 53.0808C16.257 52.2619 14.7243 51.0631 13.4801 49.565L7.17154 41.9206C6.20141 40.7688 5.6448 39.2924 5.59915 37.7499C5.5535 36.2074 6.02173 34.697 6.92186 33.4831L8.24998 31.6353L8.24998 34.625H13.5625L13.5625 12.125C13.5625 10.5331 14.7153 9.3125 16.2187 9.3125C17.7222 9.3125 18.875 10.5331 18.875 12.125L18.875 17.75H24.1875L24.1875 9.3125C24.1875 7.72063 25.3403 6.5 26.8437 6.5Z" fill="#4ECDC4"/>
</svg>
